<svg width="300" height="148" viewBox="0 0 300 148" fill="none" xmlns="http://www.w3.org/2000/svg">
<g clip-path="url(#clip0_154_594)">
<path d="M295.005 28.9998C295.005 29.638 294.984 30.2735 294.943 30.9015C294.71 34.5311 293.792 38.0839 292.24 41.3731C292.227 41.4011 292.215 41.4293 292.202 41.4547C292.13 41.6079 292.056 41.7586 291.98 41.9092C289.624 46.6432 286.02 50.6443 281.558 53.4807C277.095 56.3171 271.942 57.8813 266.656 58.0045L266.944 74.5058L270.684 72.535L271.353 73.8064L266.973 76.1116L267.481 105.219L267.506 106.75H264.639L264.667 105.219L265.538 58.0072C261.707 57.9526 257.925 57.1373 254.411 55.6087C250.898 54.0802 247.724 51.8688 245.072 49.103C244.888 48.9141 244.71 48.7201 244.531 48.526C244.523 48.5184 244.518 48.5107 244.513 48.5056C242.303 46.0964 240.515 43.3311 239.226 40.3264C239.254 40.3597 239.285 40.3878 239.313 40.4209C236.399 33.6092 236.201 25.941 238.76 18.988C241.318 12.035 246.439 6.32388 253.073 3.02509C253.172 2.9766 253.277 2.92798 253.376 2.877C259.938 -0.283508 267.448 -0.863275 274.417 1.25262C281.386 3.36852 287.305 8.02563 291.002 14.3008C291.178 14.5968 291.349 14.9007 291.513 15.2045C293.81 19.4393 295.01 24.1819 295.005 28.9998Z" fill="#F2F2F2"/>
<path d="M59.1299 44.5172C59.1299 45.028 59.1135 45.5368 59.0808 46.0394C58.8937 48.9446 58.1596 51.7884 56.917 54.4211C56.9068 54.4435 56.8965 54.4661 56.8864 54.4864C56.8292 54.609 56.7699 54.7297 56.7085 54.8502C54.8229 58.6394 51.9385 61.8419 48.3665 64.1122C44.7944 66.3826 40.6703 67.6346 36.439 67.7332L36.6699 80.9412L39.6633 79.3637L40.1987 80.3814L36.6923 82.2264L37.099 105.524L37.1194 106.75H34.8247L34.8472 105.524L35.5439 67.7353C32.4775 67.6916 29.4503 67.0391 26.6382 65.8156C23.8261 64.5921 21.2851 62.8221 19.1628 60.6083C19.0157 60.457 18.8726 60.3018 18.7296 60.1464C18.7235 60.1404 18.7194 60.1342 18.7153 60.1301C16.9461 58.2017 15.5154 55.9883 14.4836 53.5833C14.506 53.6099 14.5306 53.6324 14.553 53.6589C12.2209 48.2067 12.0625 42.0689 14.1102 36.5036C16.1579 30.9383 20.2567 26.367 25.5666 23.7265C25.6462 23.6877 25.73 23.6488 25.8097 23.608C31.0617 21.0783 37.0726 20.6142 42.6507 22.3078C48.2288 24.0014 52.967 27.7291 55.926 32.7518C56.0669 32.9888 56.2039 33.232 56.3346 33.4752C58.1734 36.8648 59.1344 40.6609 59.1299 44.5172Z" fill="#F2F2F2"/>
<path d="M74.5981 13.5949C74.3025 13.6414 74.0333 13.792 73.839 14.0196C73.6448 14.2472 73.5383 14.5367 73.5388 14.8359V107.379H79.8215V25.389H218.041V107.693H224.324V15.1272C224.325 14.8327 224.223 14.5471 224.035 14.3205C223.847 14.094 223.584 13.9411 223.295 13.8886C149.56 1.2005 83.4258 12.2074 74.5981 13.5949Z" fill="#E5E5E5"/>
<path d="M139.507 90.4153V93.2425H149.56V107.379H153.643V93.2425H194.481V107.379H198.565V93.2425H208.617V90.4153H139.507Z" fill="#CBCBCB"/>
<path d="M131.968 30.4152H86.1042V93.2424H131.968V30.4152Z" fill="#E5E5E5"/>
<path d="M127.611 36.3837H90.4613V87.2738H127.611V36.3837Z" fill="white"/>
<path d="M176.575 25.389H172.806V90.4152H176.575V25.389Z" fill="#E5E5E5"/>
<path d="M299.686 107.379H0.314136C0.230822 107.379 0.15092 107.345 0.0920081 107.287C0.0330961 107.228 0 107.148 0 107.064C0 106.981 0.0330961 106.901 0.0920081 106.842C0.15092 106.783 0.230822 106.75 0.314136 106.75H299.686C299.769 106.75 299.849 106.783 299.908 106.842C299.967 106.901 300 106.981 300 107.064C300 107.148 299.967 107.228 299.908 107.287C299.849 107.345 299.769 107.379 299.686 107.379Z" fill="#CCCCCC"/>
<path d="M170.576 145.389H144.503C144.419 145.389 144.339 145.356 144.281 145.297C144.222 145.238 144.189 145.158 144.189 145.075C144.189 144.992 144.222 144.912 144.281 144.853C144.339 144.794 144.419 144.761 144.503 144.761H170.576C170.659 144.761 170.739 144.794 170.798 144.853C170.857 144.912 170.89 144.992 170.89 145.075C170.89 145.158 170.857 145.238 170.798 145.297C170.739 145.356 170.659 145.389 170.576 145.389Z" fill="#CBCBCB"/>
<path d="M240.314 145.389H214.241C214.158 145.389 214.078 145.356 214.019 145.297C213.96 145.238 213.927 145.158 213.927 145.075C213.927 144.992 213.96 144.912 214.019 144.853C214.078 144.794 214.158 144.761 214.241 144.761H240.314C240.397 144.761 240.477 144.794 240.536 144.853C240.595 144.912 240.628 144.992 240.628 145.075C240.628 145.158 240.595 145.238 240.536 145.297C240.477 145.356 240.397 145.389 240.314 145.389Z" fill="#CBCBCB"/>
<path d="M37.3822 145.389H11.3089C11.2256 145.389 11.1457 145.356 11.0868 145.297C11.0279 145.238 10.9948 145.158 10.9948 145.075C10.9948 144.992 11.0279 144.912 11.0868 144.853C11.1457 144.794 11.2256 144.761 11.3089 144.761H37.3822C37.4655 144.761 37.5454 144.794 37.6043 144.853C37.6632 144.912 37.6963 144.992 37.6963 145.075C37.6963 145.158 37.6632 145.238 37.6043 145.297C37.5454 145.356 37.4655 145.389 37.3822 145.389Z" fill="#CBCBCB"/>
<path d="M80.0259 124.517H65.3906L65.2354 120.017C65.2287 119.822 65.2644 119.628 65.3399 119.448C65.4154 119.268 65.529 119.107 65.673 118.975C65.8169 118.843 65.9876 118.744 66.1735 118.684C66.3594 118.625 66.556 118.606 66.7497 118.63L75.2664 119.673H75.2675C76.5301 119.676 77.7399 120.18 78.6318 121.074C79.5238 121.967 80.025 123.178 80.0259 124.441V124.517Z" fill="#F7C63B"/>
<path d="M73.5029 108.556H63.2955C63.0214 108.556 62.7585 108.664 62.5647 108.858C62.3708 109.052 62.2619 109.315 62.2618 109.589V119.797C62.2618 119.932 62.2885 120.067 62.3404 120.192C62.3923 120.318 62.4683 120.431 62.5643 120.527C62.6602 120.623 62.7741 120.7 62.8995 120.752C63.0248 120.804 63.1592 120.83 63.2949 120.83H73.5029C73.6386 120.83 73.773 120.804 73.8983 120.752C74.0237 120.7 74.1377 120.624 74.2337 120.528C74.3297 120.432 74.4058 120.318 74.4578 120.193C74.5097 120.067 74.5365 119.933 74.5365 119.797V109.589C74.5366 109.315 74.4278 109.052 74.2341 108.858C74.0403 108.665 73.7775 108.556 73.5034 108.556H73.5029Z" fill="#CCCCCC"/>
<path d="M71.204 116.188L66.3847 117.127C66.0988 117.182 65.8026 117.122 65.5612 116.959C65.3197 116.796 65.1527 116.544 65.0967 116.259L64.7263 114.356C64.6709 114.071 64.7312 113.774 64.894 113.533C65.0567 113.291 65.3086 113.124 65.5943 113.068L70.4137 112.13C70.6996 112.075 70.9957 112.135 71.2372 112.298C71.4786 112.46 71.6457 112.712 71.7017 112.998L72.0721 114.9C72.1275 115.186 72.0672 115.482 71.9044 115.724C71.7417 115.965 71.4898 116.132 71.204 116.188Z" fill="#3F3D56"/>
<path d="M70.2398 113.941L66.5619 114.657C66.5285 114.664 66.4942 114.664 66.4609 114.657C66.4276 114.65 66.3959 114.637 66.3677 114.618C66.3395 114.599 66.3153 114.575 66.2965 114.546C66.2777 114.518 66.2647 114.486 66.2582 114.453C66.2517 114.42 66.2519 114.385 66.2586 114.352C66.2654 114.319 66.2787 114.287 66.2978 114.259C66.3168 114.231 66.3412 114.207 66.3696 114.188C66.3979 114.169 66.4297 114.156 66.4631 114.15L70.141 113.434C70.2082 113.421 70.2778 113.435 70.3345 113.473C70.3912 113.512 70.4304 113.571 70.4434 113.638C70.4565 113.705 70.4424 113.775 70.4043 113.832C70.3661 113.888 70.3069 113.928 70.2398 113.941Z" fill="white"/>
<path d="M69.5249 115.002L67.6225 115.372C67.5892 115.378 67.555 115.378 67.5217 115.372C67.4885 115.365 67.4569 115.352 67.4287 115.333C67.4006 115.314 67.3764 115.289 67.3577 115.261C67.339 115.233 67.326 115.201 67.3195 115.168C67.313 115.134 67.3131 115.1 67.3199 115.067C67.3267 115.034 67.3399 115.002 67.3589 114.974C67.3778 114.946 67.4021 114.922 67.4304 114.903C67.4587 114.884 67.4904 114.871 67.5238 114.865L69.4261 114.494C69.4933 114.481 69.563 114.496 69.6197 114.534C69.6764 114.572 69.7156 114.631 69.7287 114.699C69.7418 114.766 69.7277 114.835 69.6895 114.892C69.6513 114.949 69.5921 114.988 69.5249 115.002Z" fill="white"/>
<path d="M74.5365 109.589V110.946H62.2618V109.589C62.2617 109.315 62.3705 109.052 62.5643 108.858C62.758 108.665 63.0208 108.556 63.2949 108.556H73.5029C73.6386 108.556 73.773 108.582 73.8983 108.634C74.0237 108.686 74.1377 108.762 74.2337 108.858C74.3296 108.954 74.4058 109.068 74.4578 109.193C74.5097 109.319 74.5365 109.453 74.5365 109.589V109.589Z" fill="#B3B3B3"/>
<path d="M99.048 111.371C98.9771 111.142 98.8569 110.932 98.6959 110.754C98.535 110.577 98.3371 110.437 98.1162 110.345C97.8953 110.252 97.6568 110.209 97.4176 110.219C97.1783 110.228 96.944 110.29 96.7313 110.4L82.6883 105.362L82.0698 108.87L96.0681 112.72C96.2764 113.065 96.6042 113.321 96.9892 113.441C97.3742 113.561 97.7897 113.535 98.1571 113.369C98.5244 113.202 98.8179 112.907 98.9821 112.539C99.1463 112.171 99.1698 111.755 99.048 111.371Z" fill="#FFB8B8"/>
<path opacity="0.2" d="M99.048 111.371C98.9771 111.142 98.8569 110.932 98.6959 110.754C98.535 110.577 98.3371 110.437 98.1162 110.345C97.8953 110.252 97.6568 110.209 97.4176 110.219C97.1783 110.228 96.944 110.29 96.7313 110.4L82.6883 105.362L82.0698 108.87L96.0681 112.72C96.2764 113.065 96.6042 113.321 96.9892 113.441C97.3742 113.561 97.7897 113.535 98.1571 113.369C98.5244 113.202 98.8179 112.907 98.9821 112.539C99.1463 112.171 99.1698 111.755 99.048 111.371Z" fill="black"/>
<path d="M85.1809 106.001L83.8548 109.466C83.817 109.564 83.7585 109.653 83.6832 109.727C83.6078 109.801 83.5174 109.858 83.4181 109.894C83.3189 109.93 83.213 109.944 83.1078 109.935C83.0027 109.926 82.9006 109.895 82.8086 109.843L79.5857 108.029C79.0827 107.833 78.6779 107.446 78.46 106.952C78.2421 106.458 78.229 105.897 78.4235 105.394C78.618 104.89 79.0042 104.484 79.4975 104.265C79.9908 104.045 80.551 104.031 81.0553 104.223L84.6542 105.022C84.7572 105.045 84.8541 105.089 84.9382 105.153C85.0224 105.217 85.0918 105.298 85.1418 105.391C85.1918 105.484 85.2211 105.586 85.2279 105.692C85.2346 105.797 85.2186 105.903 85.1809 106.001Z" fill="#F7C63B"/>
<path d="M100.153 114.579L95.1215 116.866L95.7821 119.353C97.0578 124.156 97.3964 129.159 96.7793 134.09L100.458 134.859L103.508 127.082L102.441 118.238L100.153 114.579Z" fill="#F7C63B"/>
<path d="M110.026 126.091C106.72 126.091 104.026 128.494 103.895 131.504H116.158C116.027 128.494 113.333 126.091 110.026 126.091Z" fill="#3F3D56"/>
<path d="M107.453 126.61C107.281 113.024 99.5434 114.274 99.5434 114.274C99.5434 114.274 99.6882 118.503 99.7577 118.634C104.688 127.963 96.551 138.899 86.193 136.887C85.9977 136.849 85.8101 136.811 85.6301 136.772C84.3177 136.498 83.1589 135.734 82.3895 134.636C81.6201 133.538 81.2978 132.188 81.4882 130.861C82.5086 122.668 77.4337 122.813 77.4337 122.813H70.013L66.1593 119.344C66.0232 119.222 65.8593 119.135 65.6818 119.09C65.5042 119.046 65.3185 119.046 65.1409 119.09C64.9632 119.133 64.799 119.22 64.6627 119.342C64.5263 119.464 64.4219 119.618 64.3587 119.79L63.8629 121.135C63.8629 121.135 56.5438 121.898 57.1537 129.064H59.4165C59.4111 129.268 59.4192 129.472 59.4409 129.674L76.3283 129.537C76.811 129.532 77.2765 129.715 77.6255 130.049C77.9745 130.382 78.1793 130.839 78.1961 131.321C78.1981 131.796 78.0112 132.253 77.6765 132.59C77.3419 132.928 76.8868 133.119 76.4115 133.121C76.3891 133.121 76.3667 133.12 76.3443 133.12L73.6217 133.029C72.783 136.765 74.8415 139.281 77.1097 140.863C79.2452 142.33 81.7792 143.109 84.3705 143.093H91.7669C101.373 143.093 103.051 135.011 103.051 135.011C108.082 132.876 107.453 126.61 107.453 126.61Z" fill="#3F3D56"/>
<path d="M109.569 147.515C114.306 147.515 118.146 143.675 118.146 138.938C118.146 134.201 114.306 130.36 109.569 130.36C104.832 130.36 100.992 134.201 100.992 138.938C100.992 143.675 104.832 147.515 109.569 147.515Z" fill="#3F3D56"/>
<path d="M109.569 141.04C110.73 141.04 111.671 140.099 111.671 138.937C111.671 137.776 110.73 136.835 109.569 136.835C108.408 136.835 107.467 137.776 107.467 138.937C107.467 140.099 108.408 141.04 109.569 141.04Z" fill="white"/>
<path d="M66.2645 147.514C71.7172 147.514 76.1376 143.094 76.1376 137.641C76.1376 132.189 71.7172 127.768 66.2645 127.768C60.8117 127.768 56.3913 132.189 56.3913 137.641C56.3913 143.094 60.8117 147.514 66.2645 147.514Z" fill="#3F3D56"/>
<path d="M66.2644 140.061C67.6009 140.061 68.6843 138.978 68.6843 137.641C68.6843 136.305 67.6009 135.221 66.2644 135.221C64.928 135.221 63.8446 136.305 63.8446 137.641C63.8446 138.978 64.928 140.061 66.2644 140.061Z" fill="white"/>
<path d="M95.1358 117.542L93.3253 112.624C93.1347 112.107 93.1576 111.535 93.3888 111.034C93.6201 110.533 94.0407 110.145 94.5583 109.954L99.7488 108.043C100.66 107.708 101.666 107.748 102.547 108.155C103.428 108.562 104.112 109.302 104.447 110.213C104.597 110.617 104.673 111.046 104.673 111.477C104.671 112.025 104.547 112.566 104.31 113.06C104.073 113.554 103.729 113.989 103.302 114.333C102.995 114.58 102.648 114.775 102.278 114.911L95.1358 117.542Z" fill="#3F3D56"/>
<path d="M104.597 111.477C104.596 112.014 104.475 112.544 104.243 113.028C104.011 113.512 103.673 113.937 103.255 114.274C102.613 114.104 102.015 113.797 101.504 113.374C100.993 112.95 100.58 112.42 100.294 111.821C100.008 111.222 99.8561 110.567 99.8486 109.903C99.8412 109.239 99.9785 108.582 100.251 107.976C100.774 107.862 101.316 107.867 101.837 107.99C102.358 108.113 102.844 108.352 103.261 108.687C103.678 109.023 104.014 109.448 104.245 109.931C104.476 110.414 104.596 110.942 104.597 111.477Z" fill="#F7C63B"/>
<path d="M58.4498 130.055C59.6288 130.055 60.5845 128.895 60.5845 127.463C60.5845 126.032 59.6288 124.871 58.4498 124.871C57.2708 124.871 56.3151 126.032 56.3151 127.463C56.3151 128.895 57.2708 130.055 58.4498 130.055Z" fill="#F7C63B"/>
<path d="M86.6683 136.639H88.5374L89.427 131.79L86.668 131.791L86.6683 136.639Z" fill="#FFB8B8"/>
<path d="M86.1912 136.029L89.8727 136.029C90.1808 136.028 90.486 136.089 90.7707 136.207C91.0553 136.325 91.3139 136.498 91.5318 136.716C91.7497 136.933 91.9225 137.192 92.0404 137.477C92.1583 137.761 92.219 138.066 92.219 138.375V138.451L86.1914 138.451L86.1912 136.029Z" fill="#2F2E41"/>
<path d="M88.838 134.649C88.8162 134.649 88.7943 134.648 88.7724 134.646L86.1853 134.457C86.0807 134.448 85.9797 134.414 85.8901 134.359C85.8005 134.304 85.7247 134.23 85.6686 134.141C85.6125 134.052 85.5775 133.951 85.5664 133.847C85.5553 133.742 85.5683 133.637 85.6044 133.538L89.0668 125.759C89.0915 125.69 89.1016 125.616 89.0965 125.543C89.0913 125.469 89.071 125.398 89.0368 125.333C89.0028 125.267 88.9551 125.209 88.897 125.162C88.8389 125.116 88.7716 125.083 88.6997 125.064C87.0716 124.639 82.8944 123.505 79.2784 122.18C77.7292 121.612 76.7535 120.791 76.3784 119.74C76.2377 119.295 76.1889 118.825 76.235 118.361C76.2812 117.896 76.4213 117.446 76.6469 117.037L76.6714 116.996L80.074 117.305L83.7626 117.619L91.8462 121.954C92.5235 122.32 93.038 122.928 93.2872 123.656C93.5364 124.385 93.502 125.181 93.1909 125.885L89.4641 134.242C89.4102 134.363 89.3223 134.466 89.2112 134.538C89.1001 134.611 88.9705 134.649 88.838 134.649Z" fill="#2F2E41"/>
<path d="M80.6656 101.915C82.734 101.915 84.4107 100.239 84.4107 98.1703C84.4107 96.102 82.734 94.4252 80.6656 94.4252C78.5972 94.4252 76.9205 96.102 76.9205 98.1703C76.9205 100.239 78.5972 101.915 80.6656 101.915Z" fill="#FFB8B8"/>
<path d="M85.6008 137.097H87.4703L88.3596 132.248L85.6005 132.248L85.6008 137.097Z" fill="#FFB8B8"/>
<path d="M85.1239 136.486L88.8053 136.486C89.1134 136.486 89.4187 136.547 89.7033 136.665C89.9879 136.782 90.2466 136.955 90.4644 137.173C90.6823 137.391 90.8551 137.65 90.973 137.934C91.0909 138.219 91.1516 138.524 91.1516 138.832V138.908L85.124 138.909L85.1239 136.486Z" fill="#2F2E41"/>
<path d="M87.7706 135.106C87.7488 135.106 87.727 135.105 87.705 135.103L85.1179 134.915C85.0133 134.905 84.9123 134.872 84.8227 134.817C84.7332 134.762 84.6574 134.687 84.6013 134.598C84.5451 134.509 84.5102 134.409 84.4991 134.304C84.4879 134.2 84.5009 134.094 84.5371 133.996L87.9994 126.217C88.0242 126.148 88.0343 126.074 88.0291 126C88.024 125.927 88.0037 125.855 87.9695 125.79C87.9354 125.724 87.8877 125.666 87.8296 125.62C87.7715 125.574 87.7043 125.54 87.6323 125.522C86.0043 125.096 81.8271 123.963 78.2111 122.637C76.6619 122.069 75.6862 121.248 75.3111 120.197C75.1703 119.752 75.1216 119.283 75.1677 118.818C75.2139 118.354 75.354 117.904 75.5795 117.495L75.604 117.453L79.0066 117.763L82.6953 118.076L90.7788 122.411C91.4562 122.777 91.9707 123.385 92.2199 124.114C92.4691 124.843 92.4347 125.638 92.1235 126.343L88.3967 134.7C88.3428 134.821 88.255 134.924 88.1439 134.996C88.0328 135.068 87.9031 135.106 87.7706 135.106Z" fill="#2F2E41"/>
<path d="M81.8206 104.039L77.8561 102.667C77.8561 102.667 75.3673 104.579 76.5629 109.322C77.1871 111.77 77.0053 114.354 76.0445 116.69C75.9288 116.979 75.7954 117.261 75.6451 117.534C75.6451 117.534 80.0671 122.87 84.1841 118.906L82.583 111.206C82.583 111.206 85.0989 106.098 81.8206 104.039Z" fill="#F7C63B"/>
<path d="M81.1306 102.043C80.5976 101.245 80.1769 100.139 80.7638 99.3796C81.343 98.6302 82.4856 98.7406 83.3728 98.4091C84.6085 97.9472 85.3252 96.4955 85.1017 95.1954C84.9638 94.5481 84.6599 93.9478 84.2197 93.4536C83.7796 92.9593 83.2183 92.5882 82.5912 92.3766C81.3214 91.9706 79.9466 92.0454 78.7284 92.5869C77.9721 92.8882 77.2863 93.3429 76.7143 93.9222C76.1424 94.5015 75.6965 95.193 75.4048 95.9531C75.1274 96.7192 75.0616 97.546 75.2143 98.3463C75.3669 99.1467 75.7324 99.8912 76.2723 100.502C77.4714 101.764 79.3532 102.1 81.0941 102.08" fill="#2F2E41"/>
<path d="M77.6469 95.2371C76.9752 95.7839 75.9505 95.5411 75.2295 95.0612C74.5085 94.5813 73.9235 93.898 73.1434 93.5218C71.7681 92.8585 70.1054 93.2994 68.7669 94.0341C67.4285 94.7688 66.242 95.7839 64.8282 96.3604C63.4143 96.937 61.6102 96.9655 60.5397 95.8768C60.2762 96.6401 60.2547 97.4661 60.478 98.2421C60.7013 99.0181 61.1586 99.7063 61.7875 100.213C62.4164 100.719 63.1862 101.019 63.9919 101.072C64.7977 101.125 65.6001 100.928 66.2897 100.508C67.8389 99.5643 68.6945 97.5858 70.432 97.0649C71.3935 96.7767 72.4259 97.0089 73.3977 97.2603C74.3694 97.5117 75.3826 97.7834 76.3633 97.5693C77.3439 97.3553 78.2612 96.474 78.1364 95.4781L77.6469 95.2371Z" fill="#2F2E41"/>
<path d="M98.8616 111.218C98.7631 111 98.6179 110.806 98.4363 110.65C98.2546 110.494 98.041 110.38 97.8104 110.315C97.5798 110.25 97.3378 110.237 97.1016 110.276C96.8653 110.315 96.6405 110.406 96.4429 110.541L81.8856 107.274L81.7046 110.831L96.0709 112.924C96.3203 113.241 96.6772 113.456 97.074 113.527C97.4709 113.598 97.8801 113.521 98.224 113.311C98.568 113.101 98.8229 112.771 98.9404 112.386C99.058 112 99.0299 111.585 98.8616 111.218Z" fill="#FFB8B8"/>
<path d="M84.438 107.601L83.5494 111.202C83.5242 111.305 83.4771 111.4 83.4114 111.483C83.3458 111.566 83.2631 111.633 83.169 111.681C83.0749 111.729 82.9716 111.756 82.8661 111.76C82.7607 111.764 82.6555 111.746 82.5579 111.706L79.1358 110.303C78.6121 110.171 78.1622 109.837 77.8848 109.373C77.6073 108.91 77.5251 108.355 77.656 107.831C77.7869 107.307 78.1203 106.857 78.5831 106.578C79.0458 106.299 79.6002 106.216 80.1246 106.345L83.7944 106.694C83.8995 106.704 84.0012 106.736 84.0925 106.789C84.1839 106.842 84.2628 106.914 84.3239 107C84.385 107.086 84.4268 107.184 84.4464 107.288C84.4661 107.391 84.4632 107.498 84.438 107.601Z" fill="#F7C63B"/>
<path d="M97.18 114.045C97.7694 114.045 98.2473 113.567 98.2473 112.978C98.2473 112.388 97.7694 111.91 97.18 111.91C96.5905 111.91 96.1126 112.388 96.1126 112.978C96.1126 113.567 96.5905 114.045 97.18 114.045Z" fill="#F7C63B"/>
<path d="M126.624 69.169C126.226 72.2859 124.763 75.1377 123.202 77.8847C123.151 77.9782 123.098 78.0704 123.043 78.1639H106.824C106.496 78.0787 106.172 77.9852 105.849 77.8847C104.017 77.3269 102.288 76.4761 100.728 75.3652C94.7606 71.066 92.4644 62.9421 93.5016 55.6627C94.1465 51.1402 96.1313 46.5227 99.9964 44.0869C102.095 42.8086 104.599 42.3699 107.008 42.8586C107.069 42.8697 107.131 42.8837 107.193 42.8963C109.215 43.3513 111.015 44.482 112.04 46.3035C113.882 49.5768 112.785 53.6318 111.879 57.2749C110.976 60.9181 110.486 65.2788 113.108 67.9658C112.723 66.8421 112.645 65.6363 112.882 64.4724C113.118 63.3086 113.66 62.2286 114.452 61.3435C115.243 60.4584 116.257 59.8002 117.387 59.4364C118.518 59.0727 119.725 59.0165 120.884 59.2738C121.074 59.3143 121.261 59.3603 121.445 59.4162C121.89 59.5466 122.32 59.7264 122.725 59.9522C125.817 61.6788 127.069 65.6556 126.624 69.169Z" fill="#F2F2F2"/>
<path d="M117.006 77.8847C117.456 77.9894 117.907 78.0815 118.36 78.1638H115.908C115.587 78.0773 115.267 77.9852 114.95 77.8847C114.254 77.6669 113.568 77.4171 112.893 77.1351C110.154 76.0233 107.723 74.2703 105.803 72.0235C104.88 70.9238 104.127 69.6926 103.567 68.3705C102.96 66.8762 102.575 65.3014 102.422 63.6958C102.08 60.4016 102.429 57.0167 103.081 53.7811C103.754 50.4276 104.84 47.1704 106.314 44.0841C106.491 43.7142 106.675 43.3466 106.864 42.9814C106.877 42.9513 106.897 42.9246 106.922 42.9033C106.947 42.882 106.976 42.8667 107.008 42.8585C107.072 42.846 107.139 42.8596 107.193 42.8962C107.259 42.9337 107.307 42.9949 107.329 43.0671C107.35 43.1393 107.343 43.2171 107.309 43.2843C105.789 46.2485 104.637 49.3873 103.878 52.6309C103.097 55.8124 102.753 59.0856 102.858 62.36C102.995 65.4002 103.789 68.3901 105.591 70.8761C107.27 73.1357 109.479 74.9481 112.023 76.1538C113.614 76.9151 115.286 77.4957 117.006 77.8847Z" fill="white"/>
<path d="M122.389 78.1639H121.666C121.585 78.0717 121.507 77.9782 121.43 77.8847C119.783 75.8836 118.667 73.4995 118.186 70.9529C117.601 67.7749 118.056 64.4931 119.483 61.5937C119.881 60.7807 120.35 60.0044 120.884 59.2738C121.074 59.3143 121.261 59.3603 121.445 59.4162C119.403 62.0982 118.356 65.4062 118.482 68.7748C118.609 72.1434 119.901 75.3635 122.139 77.8847C122.22 77.9782 122.304 78.0717 122.389 78.1639Z" fill="white"/>
<path d="M32.0657 77.6427L31.8678 77.7733L46.7613 100.338L46.9591 100.207L32.0657 77.6427Z" fill="#2F2E41"/>
<path d="M23.1393 105.311H24.5925L25.2839 99.7056H23.139L23.1393 105.311Z" fill="#A0616A"/>
<path d="M22.7686 104.837L25.6307 104.837C26.1144 104.837 26.5784 105.029 26.9205 105.371C27.2625 105.713 27.4547 106.177 27.4547 106.661V106.72L22.7687 106.72L22.7686 104.837Z" fill="#2F2E41"/>
<path d="M13.6411 103.92L15.0069 104.417L17.5737 99.3864L15.5582 98.6526L13.6411 103.92Z" fill="#A0616A"/>
<path d="M13.455 103.348L16.1445 104.326C16.5991 104.492 16.9694 104.831 17.1738 105.27C17.3782 105.708 17.4001 106.21 17.2347 106.664L17.2144 106.72L12.811 105.117L13.455 103.348Z" fill="#2F2E41"/>
<path d="M22.7249 67.0414L25.807 67.9898L28.2964 72.1388L27.3481 76.999L26.8739 81.2665V100.233C26.8739 100.233 23.2262 101.182 21.6716 100.233L22.2508 89.2089L18.3389 100.945L13.9528 99.285L18.9316 82.8076C18.8515 81.5891 19.0554 80.3686 19.5273 79.2423C19.9544 78.2395 20.7044 77.4083 21.6581 76.8805V75.9321L20.7097 69.8865L22.7249 67.0414Z" fill="#2F2E41"/>
<path d="M25.0611 66.5629C26.6691 66.5629 27.9726 65.2593 27.9726 63.6513C27.9726 62.0433 26.6691 60.7398 25.0611 60.7398C23.4531 60.7398 22.1496 62.0433 22.1496 63.6513C22.1496 65.2593 23.4531 66.5629 25.0611 66.5629Z" fill="#A0616A"/>
<path d="M27.8718 62.8922C27.4776 62.8136 27.0688 62.86 26.7023 63.0249C26.3358 63.1898 26.0299 63.465 25.8273 63.812C25.7274 63.4436 25.133 63.4626 24.9131 63.7746C24.8243 63.9438 24.7698 64.1288 24.7526 64.319C24.7355 64.5093 24.7561 64.701 24.8132 64.8833C24.9289 65.2498 24.9216 65.6442 24.7921 66.0061C24.6997 66.165 24.5669 66.2966 24.4071 66.3874C24.2473 66.4783 24.0664 66.5252 23.8826 66.5234C23.514 66.5145 23.1556 66.4004 22.8496 66.1947C22.2796 65.8439 21.8238 65.3351 21.5377 64.7301C21.2515 64.1251 21.1474 63.4499 21.2379 62.7868C21.3285 62.1237 21.6098 61.5011 22.0476 60.995C22.4855 60.4888 23.061 60.1208 23.7042 59.9357C24.4352 59.7668 25.1893 59.7217 25.9352 59.8022C26.5445 59.8032 27.1491 59.909 27.7225 60.1151C28.0083 60.2211 28.2637 60.3959 28.4661 60.6238C28.6686 60.8518 28.8119 61.1261 28.8834 61.4225C28.9867 62.0216 28.636 63.0946 28.0303 63.1473" fill="#2F2E41"/>
<path d="M23.2827 60.3448C23.5466 60.3009 23.8028 60.2189 24.0432 60.1013C24.1621 60.0428 24.2666 59.9588 24.3494 59.8553C24.4321 59.7519 24.4911 59.6314 24.5221 59.5026C24.5465 59.3741 24.5223 59.2412 24.4541 59.1296C24.386 59.018 24.2788 58.9356 24.1534 58.8986C23.9614 58.8827 23.7685 58.9147 23.5918 58.9915C23.5039 59.0291 23.4079 59.044 23.3128 59.0348C23.2176 59.0255 23.1262 58.9925 23.0472 58.9387C22.8905 58.7919 22.928 58.5264 22.7942 58.3595C22.7223 58.2871 22.63 58.2384 22.5297 58.2198C22.4293 58.2012 22.3257 58.2137 22.2327 58.2556C22.0468 58.3421 21.8809 58.4661 21.7454 58.6199L21.0279 59.3306C20.8883 59.4689 20.7372 59.6405 20.7727 59.8291C20.8055 59.9261 20.8728 60.0077 20.9617 60.0584C21.0506 60.1091 21.1551 60.1254 21.2553 60.1042C21.4582 60.0574 21.6464 59.9614 21.8036 59.8247C21.5785 59.9649 21.3973 60.1654 21.2805 60.4033C21.2247 60.5206 21.2023 60.651 21.2159 60.7801C21.2296 60.9093 21.2786 61.0321 21.3577 61.1351C21.6139 61.4304 22.0997 61.39 22.4726 61.2426C22.9655 61.0476 23.3922 60.7155 23.7024 60.2856" fill="#2F2E41"/>
<path d="M23.2886 59.483C22.6565 59.3688 22.0557 59.1219 21.526 58.7586C21.0695 58.3998 20.8422 57.8733 21.1013 57.4308C20.9705 57.6553 20.9074 57.9128 20.9193 58.1723C20.9313 58.4319 21.018 58.6824 21.1689 58.8939C21.5626 59.4007 22.1281 59.7459 22.7588 59.8644C22.8919 59.9056 23.0344 59.9052 23.1672 59.8632C23.2856 59.8105 23.2895 59.6554 23.1515 59.6353" fill="#2F2E41"/>
<path d="M31.4483 76.6223C31.3914 76.655 31.3372 76.6921 31.2862 76.7333L25.674 74.9827L25.3584 73.5898L23.194 73.7914L23.5131 76.3115C23.5389 76.5151 23.63 76.7048 23.7728 76.8522C23.9156 76.9996 24.1023 77.0967 24.305 77.1289L30.9104 78.1792C31.0066 78.4129 31.1717 78.6117 31.3837 78.7492C31.5956 78.8868 31.8445 78.9565 32.097 78.9492C32.3496 78.9419 32.594 78.8578 32.7977 78.7082C33.0013 78.5586 33.1546 78.3506 33.2371 78.1118C33.3196 77.8729 33.3275 77.6146 33.2596 77.3712C33.1918 77.1278 33.0514 76.9108 32.8572 76.7491C32.663 76.5874 32.4242 76.4887 32.1725 76.466C31.9209 76.4434 31.6683 76.4979 31.4483 76.6223Z" fill="#A0616A"/>
<path d="M22.962 69.0567C22.962 69.0567 23.4691 67.6078 24.9937 67.7395C26.5183 67.8713 25.6885 73.6799 25.6885 73.6799L22.7249 77.7103L22.962 69.0567Z" fill="#2F2E41"/>
<path d="M39.8964 105.177L38.8365 102.909L40.4747 102.143L41.5347 104.411C41.6362 104.629 41.6472 104.877 41.5654 105.103C41.4836 105.328 41.3156 105.512 41.0983 105.613C40.8811 105.715 40.6324 105.726 40.407 105.644C40.1816 105.562 39.9979 105.394 39.8964 105.177Z" fill="#3F3D56"/>
<path d="M36.2492 100.323C36.8638 100.323 37.362 99.8249 37.362 99.2103C37.362 98.5957 36.8638 98.0975 36.2492 98.0975C35.6346 98.0975 35.1364 98.5957 35.1364 99.2103C35.1364 99.8249 35.6346 100.323 36.2492 100.323Z" fill="#3F3D56"/>
<path d="M44.7713 105.63L43.7114 103.362L45.3496 102.596L46.4095 104.865C46.511 105.082 46.5221 105.33 46.4403 105.556C46.3585 105.781 46.1905 105.965 45.9732 106.066C45.756 106.168 45.5073 106.179 45.2819 106.097C45.0565 106.015 44.8729 105.847 44.7713 105.63Z" fill="#3F3D56"/>
<path d="M36.2522 101.462C36.3109 100.838 36.6149 100.262 37.0973 99.8621C37.5797 99.4617 38.2013 99.2691 38.8256 99.3264L46.2788 100.019C46.5426 100.044 46.7858 100.173 46.955 100.377C47.1243 100.58 47.2057 100.843 47.1815 101.107L47.1026 101.955C47.0311 102.715 46.6612 103.415 46.074 103.902C45.4868 104.39 44.7304 104.624 43.9705 104.554L38.3878 104.035C37.7636 103.977 37.1882 103.673 36.7879 103.19C36.3875 102.708 36.1949 102.086 36.2522 101.462Z" fill="#3F3D56"/>
<path d="M37.634 105.246L37.8658 102.753L39.6662 102.921L39.4345 105.414C39.4121 105.652 39.2959 105.872 39.1114 106.025C38.9269 106.178 38.6892 106.252 38.4506 106.23C38.2119 106.207 37.9919 106.091 37.8387 105.907C37.6856 105.723 37.612 105.485 37.634 105.246Z" fill="#3F3D56"/>
<path d="M42.8585 105.732L43.0903 103.239L44.8908 103.407L44.659 105.9C44.6368 106.138 44.5206 106.358 44.3361 106.512C44.1516 106.665 43.9138 106.738 43.675 106.716C43.4363 106.694 43.2161 106.578 43.063 106.393C42.9099 106.209 42.8363 105.971 42.8585 105.732Z" fill="#3F3D56"/>
<path d="M51.1009 96.5499C51.3062 96.3379 51.5874 96.2162 51.8824 96.2114C52.1775 96.2067 52.4624 96.3194 52.6744 96.5247C52.8864 96.73 53.0082 97.0111 53.0129 97.3062C53.0176 97.6013 52.905 97.8862 52.6996 98.0982L50.6676 100.197L49.0688 98.6483L51.1009 96.5499Z" fill="#3F3D56"/>
<path d="M46.2985 100.609L47.9264 98.9281C48.3222 98.5204 48.8635 98.2863 49.4316 98.2772C49.9997 98.2681 50.5483 98.4847 50.9569 98.8795L51.3787 99.288C51.8649 99.7599 52.144 100.405 52.1548 101.083C52.1657 101.76 51.9074 102.414 51.4367 102.901L50.0954 104.286C49.9472 104.439 49.7446 104.527 49.5319 104.53C49.3192 104.533 49.1138 104.452 48.9608 104.304L46.3167 101.744C46.164 101.596 46.0764 101.393 46.0729 101.18C46.0695 100.967 46.1506 100.762 46.2985 100.609Z" fill="#3F3D56"/>
<path d="M51.3428 96.3001C51.4127 96.2278 51.4961 96.1699 51.5884 96.1299C51.6806 96.0898 51.7798 96.0683 51.8803 96.0666C51.9809 96.065 52.0808 96.0831 52.1743 96.1201C52.2678 96.157 52.3531 96.2121 52.4253 96.282C52.4976 96.352 52.5553 96.4355 52.5952 96.5277C52.6352 96.62 52.6565 96.7193 52.6581 96.8198C52.6596 96.9203 52.6413 97.0202 52.6042 97.1137C52.5672 97.2071 52.512 97.2924 52.442 97.3645L50.168 99.7126L49.0688 98.6482L51.3428 96.3001Z" fill="#3F3D56"/>
<path d="M48.0288 100.27L50.9265 103.077C51.0317 103.178 51.1158 103.299 51.1741 103.434C51.2323 103.568 51.2635 103.712 51.266 103.858C51.2684 104.005 51.242 104.15 51.1882 104.286C51.1345 104.422 51.0545 104.546 50.9527 104.651C50.851 104.756 50.7295 104.84 50.5953 104.898C50.4611 104.956 50.3167 104.987 50.1705 104.989C50.0243 104.992 49.879 104.965 49.7431 104.911C49.6072 104.857 49.4832 104.777 49.3782 104.675L46.4806 101.869L48.0288 100.27Z" fill="#3F3D56"/>
<path d="M51.0781 104.745C51.2585 104.558 51.3209 104.326 51.2174 104.226C51.1139 104.126 50.8838 104.195 50.7034 104.382C50.5231 104.568 50.4607 104.8 50.5642 104.9C50.6677 105.001 50.8978 104.931 51.0781 104.745Z" fill="#F7C63B"/>
<path d="M46.6112 103.019H47.2039V99.6999H46.6112V103.019Z" fill="#2F2E41"/>
<path d="M171.132 73.5194C173.102 73.5194 174.699 71.9226 174.699 69.9527C174.699 67.9829 173.102 66.386 171.132 66.386C169.163 66.386 167.566 67.9829 167.566 69.9527C167.566 71.9226 169.163 73.5194 171.132 73.5194Z" fill="#2F2E41"/>
<path d="M162.256 100.47H160.694L159.951 94.4465H162.256L162.256 100.47Z" fill="#FEB8B8"/>
<path d="M159.579 100.024H162.591V101.92H157.683C157.683 101.671 157.732 101.425 157.827 101.194C157.922 100.964 158.062 100.755 158.238 100.579C158.414 100.403 158.623 100.263 158.853 100.168C159.083 100.073 159.33 100.024 159.579 100.024Z" fill="#2F2E41"/>
<path d="M159.818 99.5985L158.328 99.1309L159.423 93.1609L161.622 93.8511L159.818 99.5985Z" fill="#FEB8B8"/>
<path d="M157.397 98.3713L160.27 99.2732L159.703 101.083L155.02 99.6129C155.17 99.133 155.505 98.7327 155.951 98.4998C156.397 98.267 156.917 98.2207 157.397 98.3713Z" fill="#2F2E41"/>
<path d="M160.326 97.1948C160.258 97.1948 160.19 97.1825 160.127 97.1585L158.977 96.7277C158.848 96.6789 158.741 96.5854 158.675 96.4642C158.61 96.3429 158.589 96.2021 158.619 96.0674C158.908 94.7668 159.894 90.3388 160.434 87.9638C161.074 85.1467 170.413 84.6232 170.811 84.6023L170.843 84.6006L171.894 85.9203C172.274 87.1405 172.153 88.0923 171.536 88.7493C169.736 90.666 164.361 89.4766 163.72 89.3262L160.863 96.8257C160.822 96.9343 160.748 97.0277 160.652 97.0936C160.557 97.1595 160.443 97.1948 160.326 97.1948Z" fill="#2F2E41"/>
<path d="M161.982 98.0866C161.914 98.0865 161.846 98.0742 161.783 98.0502L160.634 97.6194C160.505 97.5706 160.397 97.477 160.332 97.3558C160.266 97.2346 160.246 97.0938 160.275 96.959C160.564 95.6584 161.55 91.2304 162.09 88.8554C162.73 86.0383 172.07 85.5148 172.467 85.494L172.5 85.4922L173.55 86.8123C173.93 88.0325 173.809 88.9843 173.192 89.6413C171.392 91.5576 166.017 90.3687 165.376 90.2181L162.519 97.7174C162.477 97.826 162.404 97.9194 162.308 97.9853C162.212 98.0512 162.099 98.0865 161.982 98.0866Z" fill="#2F2E41"/>
<path d="M158.658 79.7403C158.7 79.7968 158.738 79.8565 158.771 79.9189L165.054 80.5808L165.958 79.3407L168.008 80.461L166.232 83.47L158.526 81.5054C158.332 81.6949 158.085 81.8207 157.817 81.8662C157.549 81.9116 157.274 81.8745 157.028 81.7597C156.782 81.645 156.577 81.4581 156.439 81.2238C156.302 80.9895 156.24 80.719 156.26 80.4483C156.28 80.1775 156.382 79.9194 156.553 79.7081C156.723 79.4969 156.954 79.3426 157.215 79.2657C157.475 79.1888 157.753 79.1931 158.011 79.2778C158.268 79.3626 158.494 79.524 158.658 79.7403Z" fill="#FEB8B8"/>
<path d="M173.258 87.3176C173.167 87.3174 173.078 87.2957 172.997 87.2541C171.741 86.6153 169.295 85.509 167.026 85.2775C166.948 85.2699 166.873 85.2461 166.805 85.2077C166.737 85.1694 166.678 85.1172 166.632 85.0546C166.584 84.9914 166.55 84.919 166.532 84.8421C166.514 84.7652 166.512 84.6853 166.526 84.6074C166.73 83.4743 167.2 80.5888 167.139 78.2763C167.121 77.5652 167.346 76.8693 167.776 76.3028C168.206 75.7364 168.817 75.3332 169.506 75.1595C169.921 75.0499 170.343 74.9668 170.769 74.9105C171.258 74.8486 171.755 74.9021 172.22 75.0667C172.685 75.2314 173.105 75.5027 173.446 75.8588C173.787 76.215 174.041 76.6461 174.185 77.1176C174.33 77.5892 174.362 78.0881 174.279 78.5743C173.875 80.9709 173.467 84.3181 173.821 86.6547C173.838 86.7594 173.825 86.8666 173.784 86.9644C173.743 87.0622 173.676 87.1467 173.59 87.2087C173.494 87.2791 173.377 87.3173 173.258 87.3176Z" fill="#F7C63B"/>
<path d="M167.256 81.222C167.177 81.2219 167.1 81.2057 167.028 81.1745L165.391 80.4661C165.252 80.4056 165.142 80.2922 165.086 80.1509C165.03 80.0096 165.033 79.8519 165.093 79.7123L166.358 76.7899C166.51 76.4322 166.798 76.1495 167.158 76.0039C167.518 75.8584 167.921 75.8618 168.279 76.0136C168.637 76.1654 168.919 76.453 169.065 76.8132C169.21 77.1734 169.207 77.5767 169.055 77.9344L169.047 77.9536L167.782 80.8762C167.737 80.9788 167.664 81.0661 167.57 81.1276C167.477 81.189 167.367 81.2218 167.256 81.222Z" fill="#F7C63B"/>
<path d="M171.002 73.9163C172.73 73.9163 174.131 72.5155 174.131 70.7876C174.131 69.0596 172.73 67.6589 171.002 67.6589C169.274 67.6589 167.873 69.0596 167.873 70.7876C167.873 72.5155 169.274 73.9163 171.002 73.9163Z" fill="#FEB8B8"/>
<path d="M167.817 69.2502C169.299 70.1548 170.97 70.7053 172.699 70.8588L172.184 70.2423C172.559 70.3808 172.953 70.4591 173.353 70.4742C173.553 70.48 173.751 70.4389 173.932 70.3541C174.113 70.2693 174.272 70.1433 174.396 69.9861C174.496 69.8229 174.556 69.6377 174.57 69.4464C174.584 69.255 174.552 69.0632 174.475 68.8872C174.318 68.5359 174.074 68.2307 173.766 68.0005C173.22 67.5684 172.575 67.2782 171.89 67.1557C171.204 67.0332 170.499 67.0822 169.837 67.2983C169.383 67.434 168.976 67.6949 168.664 68.0511C168.367 68.417 167.796 68.743 167.948 69.1889L167.817 69.2502Z" fill="#2F2E41"/>
<path d="M171.282 66.6144C171.905 65.9819 172.66 65.4937 173.493 65.1843C174.021 64.962 174.601 64.89 175.168 64.9764C175.45 65.0237 175.714 65.1458 175.932 65.33C176.151 65.5142 176.316 65.7538 176.411 66.0237C176.506 66.4844 176.435 66.9642 176.209 67.3769C176.011 67.7991 175.747 68.1902 175.587 68.628C175.424 69.0747 175.375 69.555 175.444 70.0255C175.514 70.4959 175.699 70.9416 175.985 71.322C176.27 71.7024 176.646 72.0054 177.078 72.2037C177.511 72.4019 177.986 72.4891 178.46 72.4572C177.921 72.5824 177.389 72.739 176.868 72.9261C176.332 73.0633 175.698 73.0541 175.3 72.6696C174.878 72.2628 174.869 71.6015 174.89 71.0158L174.981 68.4037C175.026 67.9603 174.981 67.5125 174.849 67.0868C174.779 66.8751 174.649 66.6888 174.473 66.5511C174.298 66.4135 174.086 66.3307 173.864 66.3132C173.527 66.3509 173.211 66.4937 172.959 66.7212C172.709 66.9486 172.4 67.1028 172.068 67.167C171.733 67.197 171.35 66.949 171.375 66.613" fill="#2F2E41"/>
<path d="M165.742 86.5139C165.535 86.5136 165.33 86.4674 165.143 86.3785C164.955 86.2896 164.79 86.1603 164.659 85.9999C164.528 85.8395 164.433 85.6519 164.383 85.4508C164.333 85.2496 164.328 85.0399 164.369 84.8366C164.41 84.6333 164.495 84.4416 164.619 84.2753C164.743 84.109 164.902 83.9722 165.085 83.8748C165.268 83.7773 165.47 83.7217 165.677 83.7119C165.884 83.702 166.091 83.7383 166.282 83.8179C166.34 83.8422 166.396 83.8705 166.449 83.9026L172.149 81.3441L172.309 79.7984L174.765 79.7326L174.749 82.306C174.746 82.6041 174.647 82.8933 174.467 83.1307C174.286 83.3681 174.034 83.541 173.748 83.6237L167.083 85.5204C167.07 85.5644 167.055 85.6078 167.038 85.6502C166.931 85.9056 166.751 86.1238 166.52 86.2774C166.29 86.431 166.019 86.5133 165.743 86.5138L165.742 86.5139Z" fill="#FEB8B8"/>
<path d="M174.557 80.9936C174.488 81.0289 174.411 81.0496 174.333 81.0542L172.553 81.1637C172.401 81.1728 172.252 81.1214 172.138 81.0208C172.024 80.9201 171.955 80.7784 171.946 80.6268L171.75 77.4481C171.738 77.2561 171.765 77.0636 171.827 76.8817C171.89 76.6998 171.988 76.532 172.115 76.3878C172.242 76.2437 172.397 76.1261 172.57 76.0417C172.743 75.9573 172.93 75.9078 173.123 75.896C173.315 75.8841 173.507 75.9103 173.689 75.9728C173.871 76.0354 174.039 76.1332 174.183 76.2606C174.327 76.388 174.445 76.5426 174.529 76.7155C174.613 76.8884 174.663 77.0762 174.675 77.2682L174.87 80.4468C174.877 80.5585 174.851 80.6697 174.795 80.7668C174.74 80.864 174.657 80.9427 174.557 80.9936Z" fill="#F7C63B"/>
<path d="M170.973 85.9435H160.341C160.252 85.9435 160.18 86.0158 160.18 86.105V86.6737C160.18 86.7629 160.252 86.8352 160.341 86.8352H170.973C171.062 86.8352 171.135 86.7629 171.135 86.6737V86.105C171.135 86.0158 171.062 85.9435 170.973 85.9435Z" fill="#3F3D56"/>
<path d="M156.094 86.0073V79.7654C156.094 79.5459 156.182 79.3354 156.337 79.1802C156.492 79.025 156.703 78.9376 156.922 78.9374H168.259C168.479 78.9376 168.689 79.0249 168.845 79.1802C169 79.3354 169.087 79.5458 169.087 79.7654V86.0073C169.087 86.2268 169 86.4372 168.845 86.5925C168.689 86.7477 168.479 86.835 168.259 86.8353H156.922C156.703 86.835 156.492 86.7477 156.337 86.5924C156.182 86.4372 156.094 86.2268 156.094 86.0073Z" fill="#3F3D56"/>
<path d="M162.727 83.651C163.149 83.651 163.492 83.3088 163.492 82.8866C163.492 82.4645 163.149 82.1223 162.727 82.1223C162.305 82.1223 161.963 82.4645 161.963 82.8866C161.963 83.3088 162.305 83.651 162.727 83.651Z" fill="white"/>
<path d="M152.455 10.6246H145.408C145.135 10.6249 144.872 10.7337 144.679 10.9271C144.486 11.1206 144.377 11.3828 144.376 11.6564V18.7027C144.377 18.9763 144.486 19.2385 144.679 19.432C144.872 19.6254 145.135 19.7342 145.408 19.7345H146.183V20.2057C146.183 20.3307 146.232 20.4505 146.321 20.5389C146.409 20.6273 146.529 20.6769 146.654 20.6769C146.779 20.6769 146.899 20.6273 146.987 20.5389C147.076 20.4505 147.125 20.3307 147.125 20.2057V19.7345H150.973V20.2057C150.973 20.3307 151.023 20.4505 151.111 20.5389C151.2 20.6273 151.32 20.6769 151.445 20.6769C151.57 20.6769 151.689 20.6273 151.778 20.5389C151.866 20.4505 151.916 20.3307 151.916 20.2057V19.7345H152.455C152.728 19.7342 152.99 19.6254 153.184 19.432C153.377 19.2385 153.486 18.9763 153.486 18.7027V11.6564C153.486 11.3828 153.377 11.1206 153.184 10.9271C152.99 10.7337 152.728 10.6249 152.455 10.6246Z" fill="white"/>
<path d="M152.494 11.3665H145.252V16.0728H152.494V11.3665Z" fill="#E5E5E5"/>
<path d="M146.654 18.9754C147.299 18.9754 147.822 18.4525 147.822 17.8074C147.822 17.1624 147.299 16.6395 146.654 16.6395C146.009 16.6395 145.486 17.1624 145.486 17.8074C145.486 18.4525 146.009 18.9754 146.654 18.9754Z" fill="#E5E5E5"/>
<path d="M151.326 18.9754C151.971 18.9754 152.494 18.4525 152.494 17.8074C152.494 17.1624 151.971 16.6395 151.326 16.6395C150.681 16.6395 150.158 17.1624 150.158 17.8074C150.158 18.4525 150.681 18.9754 151.326 18.9754Z" fill="#E5E5E5"/>
</g>
<defs>
<clipPath id="clip0_154_594">
<rect width="300" height="147.515" fill="white"/>
</clipPath>
</defs>
</svg>
